<svg width="460" height="341" viewBox="0 0 460 341" fill="none" xmlns="http://www.w3.org/2000/svg">
<path d="M459.8 83.6V256.772C459.8 272.745 447.26 285.793 431.496 286.599H429.943L388.143 286.629V261.25C388.143 260.414 388.8 259.757 389.636 259.757H425.464C426.3 259.757 426.957 259.1 426.957 258.264V82.1072C426.957 81.2712 426.3 80.6143 425.464 80.6143H389.636C388.8 80.6143 388.143 79.9575 388.143 79.1215V53.7429H431.496C447.26 54.5789 459.8 67.6265 459.8 83.6ZM70.1643 259.757H37.3214C36.4854 259.757 35.8286 259.1 35.8286 258.264V82.1072C35.8286 81.2712 36.4854 80.6143 37.3214 80.6143H70.1643C71.0003 80.6143 71.6572 79.9575 71.6572 79.1215V53.7429H29.8572C13.376 53.7429 0 67.1189 0 83.6V258.294C0.836 274.059 13.8836 286.629 29.8572 286.629H71.6572V261.25C71.6572 260.414 71.0003 259.757 70.1643 259.757ZM388.143 28.3643C388.143 27.5283 387.486 26.8714 386.65 26.8714H292.6V1.49286C292.6 0.656857 291.943 0 291.107 0H171.679C170.843 0 170.186 0.656857 170.186 1.49286V26.8714H73.15C72.314 26.8714 71.6572 27.5283 71.6572 28.3643V53.7429H388.143V28.3643ZM71.6572 312.007C71.6572 312.843 72.314 313.5 73.15 313.5H167.2V338.879C167.2 339.715 167.857 340.372 168.693 340.372H288.122C288.958 340.372 289.614 339.715 289.614 338.879V313.5H386.65C387.486 313.5 388.143 312.843 388.143 312.007V286.629H71.6572V312.007Z" fill="#111111"/>
</svg>
